# xmcd CD database file
# Copyright (C) 1993-2000  Ti Kan
#
# Track frame offsets:
#	150
#	12300
#	23175
#	37085
#	48367
#	60442
#	69840
#	78660
#	94755
#	106257
#	118722
#	128175
#	140175
#	153000
#	164047
#	175137
#	186187
#	197600
#	208822
#	221250
#	234787
#	246577
#
# Disc length: 3409 seconds
#
# Revision: 69
# Processed by: cddbd v1.5.1PL2 Copyright (c) Steve Scherf et al.
# Submitted via: xmcd 2.6 PL0
#
DISCID=350d4f16
DTITLE=Brenda Lee - The Legendary Brenda Lee [Disc 1]
DYEAR=1900
DGENRE=
TTITLE0=I'm Sorry
TTITLE1=Sweet Nothin's
TTITLE2=I Want To Be Wanted
TTITLE3=That's All You Gotta Do
TTITLE4=One Step At A Time
TTITLE5=Dynamite
TTITLE6=My Whole World Is Falling Down
TTITLE7=You Can Depend On Me
TTITLE8=Losing You
TTITLE9=The Grass Is Greener
TTITLE10=Rockin' Around The Christmas Tree
TTITLE11=Break It To Me Gently
TTITLE12=Emotions
TTITLE13=Dum Dum
TTITLE14=Fool #1
TTITLE15=Is It True
TTITLE16=Everybody Loves Me But You
TTITLE17=Heart In Hand
TTITLE18=All Alone Am I
TTITLE19=I Wonder
TTITLE20=As Usual
TTITLE21=Coming On Strong
EXTD=Disc 1 - Emotions/Brenda's Greatest Hits, As Usual/More Great Hi
EXTD=ts\nDisc 2 - Pennies from Heaven/The Great Pop Standards, Side By
EXTD=Side/Brenda In Love, Sweet Memories\nDisc 3 - Too Many Rivers/Ea
EXTD=rly Country Favorites, Nobody Wins/Top 10 Country Hits, Tell Me 
EXTD=What It's Like/More Great Country Hits
EXTT0=
EXTT1=
EXTT2=
EXTT3=
EXTT4=
EXTT5=
EXTT6=
EXTT7=
EXTT8=
EXTT9=
EXTT10=
EXTT11=
EXTT12=
EXTT13=
EXTT14=
EXTT15=
EXTT16=
EXTT17=
EXTT18=
EXTT19=
EXTT20=
EXTT21=
PLAYORDER=
